Coordinates
version=1
nRows=7
nColumns=38
inDegrees=yes

Units are S.I. units (second, meters, Newtons, ...)
Angles are in degrees.

endheader
time	pelvis_tilt	pelvis_list	pelvis_rotation	pelvis_tx	pelvis_ty	pelvis_tz	hip_flexion_r	hip_adduction_r	hip_rotation_r	knee_angle_r	ankle_angle_r	subtalar_angle_r	mtp_angle_r	hip_flexion_l	hip_adduction_l	hip_rotation_l	knee_angle_l	ankle_angle_l	subtalar_angle_l	mtp_angle_l	lumbar_extension	lumbar_bending	lumbar_rotation	arm_flex_r	arm_add_r	arm_rot_r	elbow_flex_r	pro_sup_r	wrist_flex_r	wrist_dev_r	arm_flex_l	arm_add_l	arm_rot_l	elbow_flex_l	pro_sup_l	wrist_flex_l	wrist_dev_l
      1.25000000	      0.64158625	      3.46775357	     -1.45628381	     -0.72398546	      0.92086611	      0.18700411	     26.44031284	     -0.40616316	     -3.21064747	    -35.79390100	     -3.56162287	     -4.06359907	     38.85369234	     -5.64056653	      3.17828043	      3.19743107	    -11.75238547	     13.63831914	     -0.49833178	    -23.07367116	     -8.34366922	     -3.56710407	     -6.33890427	     -5.88637485	    -16.63875681	      9.57741882	     19.68054661	     86.51662706	      0.00000000	      0.00000000	      2.13007122	    -19.61642277	     13.84313943	     33.54049122	     86.51662706	      0.00000000	      0.00000000
      1.26000000	      0.92820090	      2.43790772	     -0.88059962	     -0.71108272	      0.91820982	      0.18753364	     26.01629624	     -0.03434821	     -4.49747356	    -31.78979881	     -2.70333926	     -2.70115518	     38.04436055	     -6.34732975	      4.13590064	      3.83264007	    -12.36411319	     13.43892167	      0.62296573	    -22.94642731	     -8.76748461	     -2.63957223	     -7.05552098	     -5.99253602	    -16.71372919	      9.05878124	     18.81689332	     86.51662706	      0.00000000	      0.00000000	      2.40846940	    -19.88784791	     13.84408111	     35.04246854	     86.51662706	      0.00000000	      0.00000000
      1.27000000	      0.98223531	      1.86984551	     -0.38864426	     -0.69845533	      0.91610380	      0.18696818	     25.89305477	      0.07060410	     -5.66851637	    -28.01591754	     -2.11726931	     -1.24264720	     37.42781310	     -6.88289330	      4.87033137	      4.50794689	    -12.98118850	     13.21719028	      1.53663328	    -22.83007533	     -8.94788808	     -2.00157858	     -7.67728793	     -6.21675267	    -16.74532507	      8.69510582	     18.15717456	     86.51662706	      0.00000000	      0.00000000	      2.78655914	    -20.09546726	     13.78370813	     36.21114639	     86.51662706	      0.00000000	      0.00000000
      1.28000000	      0.87638695	      1.68064833	      0.01701461	     -0.68593003	      0.91449964	      0.18589714	     25.97838149	     -0.02617705	     -6.78415064	    -24.48378525	     -1.74513073	      0.41551610	     37.15639666	     -7.36642614	      5.29675744	      5.14788829	    -13.52109765	     12.98043087	      2.26252860	    -22.72620331	     -8.95821862	     -1.61604209	     -8.20774239	     -6.52281618	    -16.73260071	      8.44830998	     17.65069550	     86.51662706	      0.00000000	      0.00000000	      3.21612227	    -20.26064457	     13.66809231	     37.13871519	     86.51662706	      0.00000000	      0.00000000
      1.29000000	      0.70422091	      1.71640219	      0.34515806	     -0.67325599	      0.91313711	      0.18517938	     26.16327696	     -0.22556872	     -7.90421460	    -21.22764460	     -1.52020366	      2.37341881	     37.42227886	     -7.91023776	      5.42464084	      5.68151936	    -13.91133484	     12.73940896	      2.82559017	    -22.63698714	     -8.88304745	     -1.42726231	     -8.64934540	     -6.86861065	    -16.67544536	      8.27670363	     17.23838085	     86.51662706	      0.00000000	      0.00000000	      3.64188362	    -20.40664059	     13.50325734	     37.92992820	     86.51662706	      0.00000000	      0.00000000
      1.30000000	      0.55298546	      1.81281703	      0.60798298	     -0.66025007	      0.91178769	      0.18529244	     26.35034875	     -0.42023809	     -9.06391209	    -18.30474032	     -1.38215858	      4.68383685	     38.40777055	     -8.58261657	      5.35171876	      6.07315944	    -14.12864887	     12.50448610	      3.25389298	    -22.56489290	     -8.79800940	     -1.36411895	     -9.00524106	     -7.21529027	    -16.57725419	      8.14589252	     16.86596373	     86.51662706	      0.00000000	      0.00000000	      4.01551773	    -20.55075172	     13.29354402	     38.67697152	     86.51662706	      0.00000000	      0.00000000
      1.31000000	      0.48137350	      1.86796772	      0.80900105	     -0.64687219	      0.91043396	      0.18604819	     26.47477735	     -0.53281483	    -10.25834552	    -15.78448770	     -1.28518197	      7.32349319	     40.23778258	     -9.40040617	      5.18623005	      6.33199732	    -14.21087528	     12.28306821	      3.57723028	    -22.51241787	     -8.75723604	     -1.35105170	     -9.28255873	     -7.53255491	    -16.44679266	      8.03433197	     16.49162091	     86.51662706	      0.00000000	      0.00000000	      4.30326899	    -20.69969733	     13.04147626	     39.44523807	     86.51662706	      0.00000000	      0.00000000
